Ostensibly Imamura's first work in documentary features, A Man Vanishes is much more, heralding the future work of Kazuo Hara and Werner Herzog, amongst others, in the genre-defying mix of style and loose adherence to filmic "reality." Imamura follows one case of a growing phenomenon of working Japanese men who, sent to other cities while their families are left behind, disappear completely. The film concerns Yoshie Hayakawa, whose fiancée vanishes from sight, leaving behind only shadowy evidence of his past, casting darkness over Hayakawa's relationship with her sister, her fiancée’s family, and even the investigator, who himself may not be what he seems to be. An exceedingly radical film in scope, technique, and aesthetic, Imamura's film is in many ways a distillation of his many themes and obsessions as well as an implosion of them, casting off into the various orbits he would travel later.


___________________________________________________


General
UniqueID                         : 28086849427617359064817854927517853175 (0x152154976DAD2E8ADE8EC7687CE125F7)
Complete name                    : A.Man.Vanishes.1967.MoC.DVDRip.x264-HANDJOB.mkv
Format                           : Matroska
File size                        : 2.06 GiB
Duration                         : 2h 9mn
Overall bit rate                 : 2 273 Kbps
Writing application              : HandBrake 0.9.6
Writing library                  : libmkv 0.6.5

Video
ID                               : 1
Format                           : AVC
Format/Info                      : Advanced Video Codec
Format profile                   : High@L3.1
Format settings, CABAC           : Yes
Format settings, ReFrames        : 9 frames
Codec ID                         : V_MPEG4/ISO/AVC
Duration                         : 2h 9mn
Bit rate                         : 2 035 Kbps
Width                            : 718 pixels
Height                           : 480 pixels
Display aspect ratio             : 4:3
Original display aspect ratio    : 4:3
Frame rate mode                  : Variable
Frame rate                       : 23.976 fps
Color space                      : YUV
Chroma subsampling               : 4:2:0
Bit depth                        : 8 bits
Scan type                        : Progressive
Bits/(Pixel*Frame)               : 0.246
Stream size                      : 1.84 GiB (90%)
Writing library                  : x264 core 120
Encoding settings                : cabac=1 / ref=9 / deblock=1:-2:-2 / analyse=0x3:0x133 / me=umh / subme=9 / psy=1 / psy_rd=1.00:0.00 / mixed_ref=1 / me_range=24 / chroma_me=1 / trellis=2 / 8x8dct=1 / cqm=0 / deadzone=21,11 / fast_pskip=0 / chroma_qp_offset=-2 / threads=6 / sliced_threads=0 / nr=0 / decimate=1 / interlaced=0 / bluray_compat=0 / constrained_intra=0 / bframes=6 / b_pyramid=2 / b_adapt=2 / b_bias=0 / direct=3 / weightb=1 / open_gop=0 / weightp=2 / keyint=240 / keyint_min=24 / scenecut=40 / intra_refresh=0 / rc_lookahead=50 / rc=crf / mbtree=1 / crf=19.0 / qcomp=0.60 / qpmin=3 / qpmax=69 / qpstep=4 / ip_ratio=1.40 / aq=1:1.20
Language                         : English
Color primaries                  : BT.601-6 525, BT.1358 525, BT.1700 NTSC, SMPTE 170M
Transfer characteristics         : BT.709-5, BT.1361
Matrix coefficients              : BT.601-6 525, BT.1358 525, BT.1700 NTSC, SMPTE 170M

Audio
ID                               : 2
Format                           : AC-3
Format/Info                      : Audio Coding 3
Mode extension                   : CM (complete main)
Codec ID                         : A_AC3
Duration                         : 2h 9mn
Bit rate mode                    : Constant
Bit rate                         : 192 Kbps
Channel(s)                       : 2 channels
Channel positions                : Front: L R
Sampling rate                    : 48.0 KHz
Bit depth                        : 16 bits
Compression mode                 : Lossy
Stream size                      : 178 MiB (8%)
Language                         : Japanese

Text
ID                               : 3
Format                           : VobSub
Codec ID                         : S_VOBSUB
Codec ID/Info                    : The same subtitle format used on DVDs
Language                         : English